<svg xmlns="http://www.w3.org/2000/svg" width="32" height="32" viewBox="0 0 32 32">
  <defs>
    <linearGradient id="g" x1="0" y1="0" x2="32" y2="32" gradientUnits="userSpaceOnUse">
      <stop stop-color="#1e3a8a"/>
      <stop offset="1" stop-color="#16a34a"/>
    </linearGradient>
  </defs>
  <rect width="32" height="32" rx="7" fill="url(#g)"/>
  <g transform="translate(4 4)" fill="none" stroke="#ffffff" stroke-width="2" stroke-linecap="round" stroke-linejoin="round">
    <path d="M6 9H4.5a2.5 2.5 0 0 1 0-5H6"/>
    <path d="M18 9h1.5a2.5 2.5 0 0 0 0-5H18"/>
    <path d="M4 22h16"/>
    <path d="M10 14.66V17c0 .55-.47.98-.97 1.21C7.85 18.75 7 20.24 7 22"/>
    <path d="M14 14.66V17c0 .55.47.98.97 1.21C16.15 18.75 17 20.24 17 22"/>
    <path d="M18 2H6v7a6 6 0 0 0 12 0V2Z"/>
  </g>
</svg>
